<?xml version="1.0" encoding="utf-8"?>
<!-- Generator: Adobe Illustrator 24.2.3, SVG Export Plug-In . SVG Version: 6.00 Build 0)  -->
<svg version="1.1" id="Capa_1" xmlns="http://www.w3.org/2000/svg" xmlns:xlink="http://www.w3.org/1999/xlink" x="0px" y="0px"
	 viewBox="0 0 1240 1240" style="enable-background:new 0 0 1240 1240;" xml:space="preserve">
<style type="text/css">
	.st0{display:none;}
	.st1{fill:#FFCC00;}
	.st2{fill:#35C8FF;stroke:#FFFFFF;stroke-width:18;stroke-linecap:square;stroke-linejoin:round;stroke-miterlimit:10;}
	.st3{font-family:'Arial-Black';}
	.st4{font-size:695.2548px;}
	.st5{fill:#00FF64;stroke:#FFFFFF;stroke-width:18;stroke-linecap:square;stroke-linejoin:round;stroke-miterlimit:10;}
</style>
<g transform="translate(0.000000,1240.000000) scale(0.100000,-0.100000)" class="st0">
	<polygon points="0,6200 0,0 6200,0 12400,0 12400,6200 12400,12400 6200,12400 0,12400 	"/>
	<path class="st1" d="M8730,8487c113-106,169-136,273-144c173-13,325,74,395,226c22,47,26,71,26,151c1,83-2,102-26,153
		c-33,69-114,157-284,306c-630,554-1367,881-2196,975c-174,20-687,20-863,0c-642-73-1251-297-1775-653c-483-328-926-809-1214-1318
		c-211-373-345-729-446-1178c-67-300-94-734-70-1110c10-154,17-205,51-407c111-654,416-1311,856-1841c609-736,1467-1220,2438-1376
		c335-54,850-54,1190,0c673,107,1259,346,1748,712c263,198,488,406,534,494c124,235-2,510-253,554c-153,27-265-13-401-144
		c-476-454-970-709-1598-826c-509-94-1127-60-1588,89c-656,211-1223,628-1625,1193c-276,388-483,891-552,1337
		c-142,926,94,1819,669,2535c464,578,1159,994,1889,1130c254,47,699,61,960,30c296-36,579-109,837-215
		C8092,8999,8406,8793,8730,8487z"/>
	<path class="st1" d="M7968,6785c-69,296-177,507-371,727c-271,306-623,488-1037,534c-148,16-189,16-337-2c-471-57-891-315-1148-704
		c-182-275-258-517-259-825c-1-184,11-266,66-445c51-165,145-339,267-495c30-38,202-218,382-400c179-181,346-352,371-380
		c156-175,317-390,424-565c37-60,70-110,75-110c4,0,28,35,55,78c209,338,354,511,834,997c344,348,407,421,493,567
		c93,156,137,269,185,473C7992,6334,7991,6685,7968,6785z M7077,6248c-97-309-363-509-676-508c-323,2-592,208-678,521
		c-27,98-25,272,6,369c38,123,87,205,176,295c116,116,234,178,392,205c134,22,272,0,413-67c82-39,107-58,186-137
		c93-94,135-163,180-296C7102,6553,7102,6330,7077,6248z"/>
</g>
<g>
	<text transform="matrix(1 0 0 1 77.7563 816.7246)"><tspan x="0" y="0" class="st2 st3 st4">T</tspan><tspan x="502.1" y="0" class="st5 st3 st4">N</tspan></text>
</g>
</svg>
